<?xml version="1.0" encoding="UTF-8"?>
<svg version="1.1" xmlns="http://www.w3.org/2000/svg" width="1600" height="359">
<path d="M0 0 C2.15698102 -0.00174663 4.3139612 -0.00525323 6.47093689 -0.01035666 C12.36823439 -0.01926231 18.26523898 -0.00335369 24.16249919 0.01675558 C30.53313704 0.0340799 36.90375927 0.02818036 43.27441406 0.02514648 C54.30209177 0.02305227 65.32967307 0.03542865 76.35732651 0.05809784 C87.91760586 0.08180079 99.47784732 0.09716864 111.03815079 0.10150909 C112.11805774 0.10192153 112.11805774 0.10192153 113.219781 0.1023423 C116.8762789 0.10369572 120.53277683 0.10490122 124.1892748 0.10604981 C150.05932457 0.11444186 175.92932496 0.14136445 201.79934692 0.17926025 C226.92499536 0.21602307 252.05063016 0.24427755 277.17630005 0.2612915 C278.75746127 0.26237407 280.33862249 0.26345689 281.91978371 0.26453996 C294.76826891 0.27329559 307.61675449 0.28146569 320.46524017 0.28949389 C379.83528219 0.32701221 439.20519527 0.40730209 498.57522583 0.48101807 C498.57522583 118.95101807 498.57522583 237.42101807 498.57522583 359.48101807 C292.78771783 359.84442585 292.78771783 359.84442585 214.01066232 359.91450274 C193.41082812 359.93287383 172.81099438 359.95166524 152.21116178 359.97175201 C149.71941828 359.97418057 147.22767476 359.97659592 144.73593123 359.97899786 C105.00482769 360.01740692 65.27383934 360.08494643 25.54280544 360.16769305 C-15.2874996 360.25257475 -56.11774093 360.30798434 -96.94813271 360.32625298 C-102.71369518 360.32884641 -108.47925744 360.33177714 -114.24481964 360.33491325 C-115.37957711 360.33552006 -116.51433458 360.33612687 -117.68347864 360.33675206 C-135.95800113 360.34739205 -154.23232676 360.38914662 -172.50676894 360.44250637 C-190.87393859 360.49547397 -209.24091287 360.51573436 -227.60815623 360.50253046 C-238.52376545 360.49567954 -249.43866017 360.51398408 -260.35414051 360.56819595 C-267.64545335 360.60193763 -274.93629818 360.60299703 -282.22764329 360.57750439 C-286.38268245 360.56391219 -290.53637034 360.56450826 -294.69126472 360.60496671 C-298.4758698 360.64153906 -302.25807684 360.63621437 -306.0426474 360.59827785 C-308.03592532 360.58887503 -310.02926506 360.62344354 -312.02222818 360.66009435 C-321.92957312 360.49363657 -327.3044271 356.96949046 -334.42477417 350.48101807 C-335.24809033 349.73199472 -336.0714065 348.98297137 -336.91967164 348.21125034 C-339.04356566 346.22846927 -341.0843782 344.18667467 -343.11227417 342.10601807 C-343.84212524 341.36633789 -344.57197632 340.62665771 -345.32394409 339.86456299 C-349.90538856 335.17365897 -354.19916784 330.38963021 -358.24899292 325.23101807 C-362.36636613 320.02701315 -366.75681506 315.04976868 -371.09567261 310.03033447 C-372.23164875 308.70614186 -373.34964779 307.36656307 -374.46383667 306.02398682 C-384.47345814 294.0718589 -398.81112052 286.66988401 -414.37925022 285.20255189 C-417.45158242 285.09806177 -420.51123364 285.08012639 -423.58528042 285.09905052 C-424.75416454 285.09420021 -425.92304866 285.0893499 -427.12735352 285.08435261 C-430.34978956 285.07396854 -433.57188793 285.07684296 -436.79431857 285.08548164 C-440.30832461 285.09156102 -443.82228268 285.08015525 -447.33627611 285.07101595 C-453.48757293 285.05739438 -459.63879683 285.05478601 -465.79010582 285.05948448 C-474.9370516 285.06641405 -484.08392202 285.05612676 -493.23085714 285.04232107 C-508.62054511 285.01955799 -524.01021219 285.01052078 -539.3999157 285.00919724 C-554.63771641 285.0078126 -569.87549121 284.99980572 -585.11328316 284.98314285 C-586.53542872 284.98159035 -586.53542872 284.98159035 -587.98630451 284.98000648 C-592.80147399 284.97470871 -597.61664332 284.96928226 -602.43181259 284.96379931 C-636.52752452 284.92513775 -670.62323459 284.8995553 -704.71896362 284.88238525 C-712.97840375 284.87821127 -721.23784386 284.87402275 -729.49728394 284.86975098 C-730.52187975 284.86922123 -731.54647557 284.86869148 -732.60211975 284.86814568 C-756.41581037 284.85571864 -780.22949629 284.8380271 -804.04318237 284.81890869 C-805.06361704 284.81809228 -806.08405171 284.81727586 -807.13540864 284.81643471 C-830.42479268 284.79777429 -853.71417512 284.77764161 -877.00355625 284.75565529 C-877.98181327 284.75473384 -878.96007029 284.75381239 -879.96797146 284.75286301 C-888.76681594 284.7445729 -897.56566041 284.73627512 -906.36450464 284.72773142 C-929.26227248 284.70552528 -952.16003415 284.68776354 -975.05781073 284.67777862 C-989.41112077 284.67145321 -1003.76442631 284.66191674 -1018.11773264 284.64981006 C-1027.21051043 284.64228143 -1036.30327964 284.63766873 -1045.39606057 284.63706407 C-1051.46301058 284.63640079 -1057.52995129 284.63218828 -1063.59689713 284.62505783 C-1067.05775323 284.62110227 -1070.51859035 284.6187682 -1073.97944855 284.62081973 C-1077.70137182 284.62220952 -1081.42323879 284.61754586 -1085.14515591 284.61130333 C-1086.76877299 284.61412365 -1086.76877299 284.61412365 -1088.42519042 284.61700094 C-1089.91026924 284.61263288 -1089.91026924 284.61263288 -1091.42534965 284.60817659 C-1092.27665869 284.60775594 -1093.12796774 284.6073353 -1094.00507402 284.60690191 C-1096.42477417 284.48101807 -1096.42477417 284.48101807 -1101.42477417 283.48101807 C-1101.42477417 257.74101807 -1101.42477417 232.00101807 -1101.42477417 205.48101807 C-1086.22220299 205.4722187 -1086.22220299 205.4722187 -1070.71250916 205.46324158 C-1063.83601886 205.45915914 -1056.95952857 205.45506296 -1050.08303833 205.45088196 C-1048.74309971 205.4500674 -1048.74309971 205.4500674 -1047.37609162 205.44923638 C-988.21868402 205.41321922 -929.06128117 205.37364683 -869.90388489 205.32203674 C-868.76152497 205.32104118 -867.61916506 205.32004561 -866.44218818 205.31901988 C-841.61508527 205.29736088 -816.78798299 205.27503815 -791.9608813 205.25203178 C-779.78551562 205.24075336 -767.61014982 205.22962159 -755.43478394 205.21856689 C-754.22319457 205.21746433 -753.01160521 205.21636176 -751.76330102 205.21522579 C-712.49866119 205.17956307 -673.23402222 205.15358274 -633.96937202 205.13262838 C-593.61677429 205.11104224 -553.26419567 205.07967815 -512.91161548 205.03602694 C-507.21090271 205.02986477 -501.51018982 205.02381428 -495.80947685 205.0178318 C-494.68750485 205.01665092 -493.56553285 205.01547004 -492.4095617 205.01425337 C-474.35555946 204.99553854 -456.30156642 204.98711827 -438.24755566 204.98255682 C-420.09316153 204.97775 -401.93880244 204.96207602 -383.78442711 204.93535241 C-373.00121616 204.91980838 -362.21807437 204.91255357 -351.43485283 204.91724878 C-344.22535333 204.91956576 -337.01591903 204.91099164 -329.80644007 204.89369396 C-325.70261599 204.88415553 -321.59893602 204.87922686 -317.49510611 204.88762244 C-294.78976507 205.03796018 -294.78976507 205.03796018 -272.42477417 201.48101807 C-271.56818193 201.28908408 -270.71158969 201.0971501 -269.82904011 200.89939994 C-255.38154384 197.49127428 -241.61711996 191.32488846 -230.42477417 181.48101807 C-229.74157104 180.91640869 -229.05836792 180.35179932 -228.35446167 179.77008057 C-223.53549428 175.72068211 -219.46445557 171.29425548 -215.42477417 166.48101807 C-208.57294081 158.35635684 -201.58218701 150.41724876 -194.29684448 142.67730713 C-190.8028603 138.96458274 -187.37583823 135.21354871 -184.04586792 131.35211182 C-178.33625144 124.76197617 -172.40864358 118.36090975 -166.50949097 111.94073486 C-163.64932849 108.82540543 -160.80992773 105.69284401 -157.98727417 102.54351807 C-153.98779836 98.08449746 -149.93044425 93.68145423 -145.84884644 89.29766846 C-143.19836122 86.44110971 -140.60100792 83.54834423 -138.04586792 80.60601807 C-131.73125695 73.35892071 -125.05855715 66.43479161 -118.42477417 59.48101807 C-117.91946167 58.95089111 -117.41414917 58.42076416 -116.89352417 57.87457275 C-110.8085613 51.52869941 -104.33235282 45.91173957 -97.42477417 40.48101807 C-96.46184448 39.70113525 -95.49891479 38.92125244 -94.50680542 38.11773682 C-80.61853454 27.08105007 -65.53318144 17.89231877 -49.42477417 10.48101807 C-48.23239136 9.92672119 -47.04000854 9.37242432 -45.81149292 8.80133057 C-42.37120361 7.26295871 -38.9718914 5.75022567 -35.42477417 4.48101807 C-34.53808387 4.15202648 -33.65139356 3.8230349 -32.73783386 3.48407388 C-21.79672227 -0.12878921 -11.41535545 -0.06907135 0 0 Z " fill="#63EAFD" transform="translate(1101.4247741699219,-0.48101806640625)"/>
<path d="M0 0 C0.66 0.33 1.32 0.66 2 1 C1.38592285 1.38220703 0.7718457 1.76441406 0.13916016 2.15820312 C-2.70298374 3.9323414 -5.53897079 5.71610486 -8.375 7.5 C-9.34050781 8.10070313 -10.30601563 8.70140625 -11.30078125 9.3203125 C-17.90246713 13.48513446 -23.99394626 18.02043544 -30 23 C-30.96550781 23.76828125 -31.93101562 24.5365625 -32.92578125 25.328125 C-44.79779873 34.88791649 -56.15125081 45.27664701 -66.11328125 56.828125 C-68.23269384 59.26786288 -70.39457161 61.66579524 -72.5625 64.0625 C-73.31917969 64.90554687 -74.07585938 65.74859375 -74.85546875 66.6171875 C-76.16139111 68.06821234 -77.47464406 69.51273913 -78.80078125 70.9453125 C-83.42123133 76.05876346 -85.95097357 81.07642558 -87 88 C-87.33 87.34 -87.66 86.68 -88 86 C-91.74417753 88.01658961 -94.03482196 89.97083405 -96.5625 93.375 C-99.87351308 97.66426695 -103.36749598 101.67000269 -107.0625 105.625 C-108.0911499 106.72786079 -109.11979582 107.83072529 -110.1484375 108.93359375 C-110.87885254 109.71645752 -110.87885254 109.71645752 -111.62402344 110.51513672 C-116.86910041 115.85186135 -116.86910041 115.85186135 -121 122 C-122.485 122.99 -122.485 122.99 -124 124 C-124.95458347 125.24260434 -125.86828538 126.51717206 -126.75 127.8125 C-128.84473936 130.70847716 -130.77872046 132.76295681 -133.75 134.75 C-137.0487211 137.03372999 -137.35095518 137.67644249 -139 141 C-140.62109375 142.4921875 -140.62109375 142.4921875 -142.4375 143.875 C-145.72497691 146.57032268 -147.29030823 149.06770893 -149 153 C-150 154.33333333 -151 155.66666667 -152 157 C-152 157.66 -152 158.32 -152 159 C-152.5775 159.061875 -153.155 159.12375 -153.75 159.1875 C-156.87580285 160.31626214 -157.98152818 162.41383298 -160 165 C-161.32467746 165.6837045 -162.65863633 166.34964186 -164 167 C-164.721875 167.763125 -165.44375 168.52625 -166.1875 169.3125 C-169.78045057 172.74576388 -173.59811707 174.75251295 -178 177 C-178.95648437 177.49757812 -179.91296875 177.99515625 -180.8984375 178.5078125 C-203.43489053 190.03674348 -226.49863742 192.48313006 -251.56616211 192.35644531 C-253.62846463 192.35723883 -255.69076698 192.35934415 -257.75306702 192.36264038 C-263.2810493 192.36771148 -268.80884089 192.35437175 -274.33679271 192.33711338 C-280.14750202 192.321933 -285.95821034 192.32324822 -291.76893616 192.32244873 C-301.50476282 192.31877473 -311.24051818 192.30389336 -320.97631836 192.28125 C-333.46871032 192.25225434 -345.9610454 192.24201198 -358.45346737 192.2375679 C-369.22237124 192.23358976 -379.9912628 192.22109914 -390.76015782 192.20722103 C-394.21222038 192.20312811 -397.66428251 192.20019973 -401.11634636 192.19742584 C-406.53131864 192.19253049 -411.94625652 192.18232314 -417.36121178 192.16798782 C-419.34698933 192.16347071 -421.33277151 192.16062755 -423.31855392 192.15958023 C-426.0281945 192.1578304 -428.7377495 192.14993717 -431.44737244 192.14044189 C-432.23267002 192.14130838 -433.01796759 192.14217486 -433.82706207 192.1430676 C-436.8205473 192.12732732 -439.67768881 192.06137286 -442.62346905 191.50045234 C-447.09424972 190.83781584 -451.47029141 190.8563929 -455.98377037 190.8613348 C-457.4934308 190.85707147 -457.4934308 190.85707147 -459.03358942 190.85272202 C-462.42111333 190.84437049 -465.80860306 190.84310644 -469.19613647 190.84178162 C-471.64319745 190.83721658 -474.09025764 190.83221665 -476.53731692 190.82681805 C-481.86537057 190.81606322 -487.19341551 190.80839117 -492.52147675 190.80341911 C-500.44411242 190.79600921 -508.36673162 190.78292515 -516.28935758 190.76867336 C-529.61635603 190.74486075 -542.94335742 190.72565744 -556.27036667 190.70907402 C-569.46725237 190.69263748 -582.66413259 190.67415661 -595.86101151 190.65294075 C-596.68131636 190.65162314 -597.50162122 190.65030554 -598.3467838 190.648948 C-602.51263668 190.64224599 -606.6784895 190.6355074 -610.84434231 190.62875474 C-640.35699763 190.58098183 -669.86965807 190.53779964 -699.38232422 190.49731445 C-728.05485404 190.45797126 -756.72737963 190.41655036 -785.39990234 190.37231445 C-786.28359429 190.37095192 -787.16728623 190.36958939 -788.07775672 190.36818558 C-796.95209181 190.35450029 -805.82642684 190.34077275 -814.70076182 190.32701423 C-832.779074 190.29898711 -850.8573866 190.27124207 -868.93569946 190.2436676 C-869.76692517 190.2423994 -870.59815087 190.2411312 -871.45456523 190.23982458 C-926.96970328 190.15515761 -982.48485097 190.07708734 -1038 190 C-1038 189.34 -1038 188.68 -1038 188 C-1036.94660167 187.99939973 -1036.94660167 187.99939973 -1035.87192256 187.99878732 C-959.40764566 187.95510866 -882.9433714 187.90772761 -806.47911072 187.84101868 C-805.3367508 187.84002311 -804.19439089 187.83902754 -803.01741401 187.83800181 C-778.1903111 187.81634281 -753.36320882 187.79402009 -728.53610713 187.77101372 C-716.36074145 187.75973529 -704.18537565 187.74860352 -692.01000977 187.73754883 C-690.7984204 187.73644626 -689.58683104 187.7353437 -688.33852685 187.73420772 C-649.07388702 187.698545 -609.80924805 187.67256467 -570.54459785 187.65161031 C-530.19200012 187.63002418 -489.8394215 187.59866008 -449.48684131 187.55500887 C-443.78612854 187.54884671 -438.08541565 187.54279622 -432.38470268 187.53681374 C-431.26273068 187.53563285 -430.14075868 187.53445197 -428.98478753 187.53323531 C-410.93078529 187.51452047 -392.87679225 187.5061002 -374.82278149 187.50153876 C-356.66838736 187.49673193 -338.51402827 187.48105795 -320.35965294 187.45433434 C-309.57644199 187.43879032 -298.7933002 187.4315355 -288.01007866 187.43623071 C-280.80057916 187.4385477 -273.59114486 187.42997357 -266.3816659 187.41267589 C-262.27784182 187.40313747 -258.17416185 187.3982088 -254.07033194 187.40660437 C-231.3649909 187.55694212 -231.3649909 187.55694212 -209 184 C-208.14340776 183.80806602 -207.28681552 183.61613203 -206.40426594 183.41838187 C-191.95676967 180.01025621 -178.19234579 173.8438704 -167 164 C-166.31679688 163.43539062 -165.63359375 162.87078125 -164.9296875 162.2890625 C-160.11072011 158.23966404 -156.0396814 153.81323742 -152 149 C-145.14816664 140.87533877 -138.15741284 132.93623069 -130.87207031 125.19628906 C-127.37808613 121.48356467 -123.95106406 117.73253065 -120.62109375 113.87109375 C-114.91147727 107.2809581 -108.98386941 100.87989169 -103.0847168 94.4597168 C-100.22455432 91.34438736 -97.38515356 88.21182594 -94.5625 85.0625 C-90.56302419 80.60347939 -86.50567008 76.20043617 -82.42407227 71.81665039 C-79.77358705 68.96009164 -77.17623375 66.06732616 -74.62109375 63.125 C-68.30648278 55.87790265 -61.63378298 48.95377354 -55 42 C-54.4946875 41.46987305 -53.989375 40.93974609 -53.46875 40.39355469 C-47.38378713 34.04768134 -40.90757865 28.43072151 -34 23 C-33.03707031 22.22011719 -32.07414063 21.44023438 -31.08203125 20.63671875 C-21.44861638 12.98126739 -11.02698184 5.51349092 0 0 Z " fill="#A7EBF5" transform="translate(1038,17)"/>
<path d="M0 0 C65.4224186 -0.05141752 130.8448396 -0.0991161 196.26727295 -0.12702942 C197.23551569 -0.12744359 198.20375844 -0.12785776 199.20134187 -0.12828448 C220.243767 -0.13726317 241.28619234 -0.14557372 262.328618 -0.15319599 C272.64778965 -0.156938 282.96696125 -0.16082766 293.28613281 -0.16479492 C294.31301548 -0.1651872 295.33989814 -0.16557948 296.39789846 -0.16598364 C329.68327417 -0.17876812 362.9686346 -0.20130238 396.25400105 -0.22889166 C430.45848541 -0.25719129 464.66296132 -0.27565676 498.86745719 -0.28174497 C503.69838894 -0.28260944 508.52932066 -0.28358635 513.36025238 -0.28463173 C514.31105083 -0.284834 515.26184929 -0.28503627 516.24145982 -0.28524467 C531.54787483 -0.28879008 546.8542637 -0.30270498 562.16066806 -0.3204961 C577.54805069 -0.33816011 592.93540741 -0.34490336 608.32279983 -0.34050413 C617.46518084 -0.33822209 626.607467 -0.34430841 635.74983089 -0.36239263 C641.85919614 -0.37365186 647.96849937 -0.37398423 654.07786892 -0.36549544 C657.55747288 -0.36097155 661.03689761 -0.36113811 664.51648226 -0.37464955 C668.27070346 -0.38668846 672.02446095 -0.38019914 675.77867508 -0.36914349 C676.85094058 -0.37702453 677.92320608 -0.38490557 679.02796447 -0.39302543 C695.74265372 -0.28180056 711.69718461 5.64025757 724 17 C724.71929688 17.66257812 725.43859375 18.32515625 726.1796875 19.0078125 C730.06373821 22.74529526 733.39790916 26.6663987 736.546875 31.03515625 C738.86540835 34.17016237 741.43321881 37.06653578 744 40 C743.67 40.66 743.34 41.32 743 42 C738.11572696 36.73539422 733.3205913 31.50609132 728.9375 25.8125 C718.70159322 12.95147995 706.00934474 6.11715811 690 3 C685.9387841 2.61781477 681.91658643 2.59293348 677.83949375 2.61803246 C676.67060963 2.61318215 675.5017255 2.60833184 674.29742065 2.60333455 C671.07498461 2.59295047 667.85288624 2.59582489 664.6304556 2.60446358 C661.11644956 2.61054296 657.60249149 2.59913719 654.08849806 2.58999789 C647.93720124 2.57637632 641.78597734 2.57376794 635.63466835 2.57846642 C626.48772257 2.58539599 617.34085215 2.57510869 608.19391703 2.561303 C592.80422906 2.53853992 577.41456198 2.52950272 562.02485847 2.52817917 C546.78705776 2.52679454 531.54928296 2.51878766 516.31149101 2.50212479 C515.36339397 2.50108978 514.41529692 2.50005478 513.43846966 2.49898841 C508.62330018 2.49369064 503.80813085 2.4882642 498.99296158 2.48278125 C464.89724965 2.44411968 430.80153958 2.41853723 396.70581055 2.40136719 C388.44637042 2.39719321 380.18693031 2.39300468 371.92749023 2.38873291 C370.90289442 2.38820316 369.8782986 2.38767341 368.82265442 2.38712761 C345.0089638 2.37470058 321.19527788 2.35700903 297.3815918 2.33789062 C296.36115713 2.33707421 295.34072246 2.3362578 294.28936553 2.33541664 C270.99998149 2.31675623 247.71059905 2.29662354 224.42121792 2.27463722 C223.4429609 2.27371577 222.46470388 2.27279432 221.45680271 2.27184495 C212.65795823 2.26355484 203.85911376 2.25525705 195.06026953 2.24671336 C172.16250169 2.22450721 149.26474002 2.20674548 126.36696344 2.19676055 C112.0136534 2.19043515 97.66034786 2.18089868 83.30704153 2.16879199 C74.21426374 2.16126337 65.12149453 2.15665066 56.0287136 2.156046 C49.96176359 2.15538272 43.89482288 2.15117021 37.82787704 2.14403976 C34.36702094 2.14008421 30.90618382 2.13775013 27.44532562 2.13980167 C23.72340235 2.14119145 20.00153538 2.13652779 16.27961826 2.13028526 C14.65600118 2.13310558 14.65600118 2.13310558 12.99958375 2.13598287 C12.0095312 2.13307084 11.01947866 2.1301588 9.99942452 2.12715852 C9.14811548 2.12673788 8.29680643 2.12631723 7.41970015 2.12588384 C4.86515523 1.99298476 2.49280876 1.56071901 0 1 C0 0.67 0 0.34 0 0 Z " fill="#EDFCFE" transform="translate(0,282)"/>
<path d="M0 0 C-17.51100938 6.79068671 -33.80614226 8.1703269 -52.41770077 8.10743046 C-53.80805253 8.10645908 -55.19840467 8.10593496 -56.58875677 8.10581067 C-60.37920518 8.10419743 -64.16961751 8.09631137 -67.96005464 8.08732699 C-72.09501956 8.07866675 -76.22998927 8.07597537 -80.36496121 8.07250541 C-87.6017444 8.06562079 -94.83851436 8.05497618 -102.07528877 8.04183006 C-112.83600495 8.02229969 -123.59672307 8.00864294 -134.35744946 7.99616829 C-152.46119589 7.97501574 -170.56493266 7.94913162 -188.66866875 7.92053413 C-206.58900116 7.89224188 -224.50933461 7.8660629 -242.42967415 7.84269524 C-243.54465221 7.84124015 -244.65963027 7.83978506 -245.80839555 7.83828588 C-251.47099729 7.83090695 -257.13359907 7.82356567 -262.79620088 7.81623887 C-302.88570581 7.76429972 -342.97520282 7.70763904 -383.06469727 7.64819336 C-422.00675147 7.59045995 -460.94880777 7.5348704 -499.89086914 7.48217773 C-501.09161126 7.48055215 -502.29235337 7.47892657 -503.52948161 7.47725173 C-515.5880242 7.46092906 -527.64656685 7.44464992 -539.70510954 7.42840267 C-564.26890658 7.39530529 -588.83270323 7.36191743 -613.39649963 7.32835388 C-614.52585887 7.3268111 -615.6552181 7.32526832 -616.81880034 7.32367879 C-692.21254047 7.2206527 -767.60627103 7.11085577 -843 7 C-843 6.67 -843 6.34 -843 6 C-841.94660167 5.99939973 -841.94660167 5.99939973 -840.87192256 5.99878732 C-764.40764566 5.95510866 -687.9433714 5.90772761 -611.47911072 5.84101868 C-610.3367508 5.84002311 -609.19439089 5.83902754 -608.01741401 5.83800181 C-583.1903111 5.81634281 -558.36320882 5.79402009 -533.53610713 5.77101372 C-521.36074145 5.75973529 -509.18537565 5.74860352 -497.01000977 5.73754883 C-495.7984204 5.73644626 -494.58683104 5.7353437 -493.33852685 5.73420772 C-454.07388702 5.698545 -414.80924805 5.67256467 -375.54459785 5.65161031 C-335.19200012 5.63002418 -294.8394215 5.59866008 -254.48684131 5.55500887 C-248.78612854 5.54884671 -243.08541565 5.54279622 -237.38470268 5.53681374 C-236.26273068 5.53563285 -235.14075868 5.53445197 -233.98478753 5.53323531 C-215.93078529 5.51452047 -197.87679225 5.5061002 -179.82278149 5.50153876 C-161.66838736 5.49673193 -143.51402827 5.48105795 -125.35965294 5.45433434 C-114.57644199 5.43879032 -103.7933002 5.4315355 -93.01007866 5.43623071 C-85.80057916 5.4385477 -78.59114486 5.42997357 -71.3816659 5.41267589 C-67.27784182 5.40313747 -63.17416185 5.3982088 -59.07033194 5.40660437 C-40.49232263 5.44104018 -23.00451696 5.10668957 -5.1015625 -0.546875 C-3 -1 -3 -1 0 0 Z " fill="#FAFEFE" transform="translate(843,199)"/>
<path d="M0 0 C66.47458849 -0.05140074 132.94917936 -0.09910161 199.42378235 -0.12702942 C200.40708887 -0.12744359 201.39039539 -0.12785776 202.40349907 -0.12828448 C223.77163181 -0.13726249 245.13976475 -0.14557314 266.50789801 -0.15319599 C276.9863038 -0.15693811 287.46470953 -0.16082776 297.94311523 -0.16479492 C299.50723484 -0.16538334 299.50723484 -0.16538334 301.10295282 -0.16598364 C334.92227494 -0.17877552 368.74158206 -0.20131529 402.56089508 -0.22889166 C437.30467009 -0.2571705 472.0484368 -0.27565193 506.79222312 -0.28174497 C511.69567311 -0.28260948 516.59912306 -0.28358639 521.50257301 -0.28463173 C522.95022589 -0.28493513 522.95022589 -0.28493513 524.42712429 -0.28524467 C539.9841168 -0.28879456 555.54108368 -0.30272149 571.09806573 -0.3204961 C586.72505158 -0.33813044 602.35201193 -0.34491082 617.97900739 -0.34050413 C627.27171917 -0.33821645 636.56433787 -0.34435848 645.8570329 -0.36239263 C652.05767 -0.37360763 658.25824586 -0.37401553 664.45888712 -0.36549544 C667.9963619 -0.36094827 671.53366014 -0.36123299 675.07111629 -0.37464955 C678.87543667 -0.38896918 682.67950031 -0.38026343 686.48383617 -0.36914349 C687.59053422 -0.37702453 688.69723227 -0.38490557 689.83746663 -0.39302543 C698.98362338 -0.33207996 698.98362338 -0.33207996 703 3 C703.33 2.34 703.66 1.68 704 1 C704 1.66 704 2.32 704 3 C704.66 3.33 705.32 3.66 706 4 C705.67 4.66 705.34 5.32 705 6 C704.09955273 5.717271 703.19910545 5.434542 702.2713719 5.14324546 C688.90494036 1.30440093 675.69799663 1.42452994 661.88330021 1.47599602 C658.34847708 1.48466923 654.81373285 1.46991798 651.27892882 1.458287 C645.098989 1.4411071 638.91918095 1.43853312 632.73922348 1.44580269 C623.55004105 1.45654449 614.36098751 1.44426691 605.17181933 1.42743097 C589.71047144 1.3997476 574.24916454 1.39049691 558.78779411 1.39188385 C543.48713472 1.39319566 528.1865156 1.38623362 512.88586617 1.36830902 C511.45690915 1.36664194 511.45690915 1.36664194 509.99908431 1.36494118 C505.16078557 1.35925381 500.32248701 1.35341946 495.4841885 1.34752855 C461.24686854 1.30610669 427.00955863 1.28310359 392.7722168 1.27099609 C359.51862446 1.25919418 326.26505439 1.23900963 293.01147461 1.20751953 C291.98580009 1.20655158 290.96012556 1.20558363 289.90337 1.20458635 C279.60278423 1.19485623 269.30219864 1.18495615 259.00161316 1.17493158 C238.01959542 1.15451567 217.03757668 1.13523384 196.05555725 1.11663818 C194.60859358 1.11535369 194.60859358 1.11535369 193.13239831 1.11404325 C128.75494451 1.05702427 64.37747273 1.02643902 0 1 C0 0.67 0 0.34 0 0 Z " fill="#84E4F0" transform="translate(0,281)"/>
<path d="M0 0 C0.99 0.495 0.99 0.495 2 1 C1.07888428 1.57331055 1.07888428 1.57331055 0.13916016 2.15820312 C-2.70298374 3.9323414 -5.53897079 5.71610486 -8.375 7.5 C-9.34050781 8.10070313 -10.30601562 8.70140625 -11.30078125 9.3203125 C-17.90246713 13.48513446 -23.99394626 18.02043544 -30 23 C-30.96550781 23.76828125 -31.93101562 24.5365625 -32.92578125 25.328125 C-44.81571844 34.9023461 -56.15679896 45.30907369 -66.1484375 56.86328125 C-72.70678687 64.43167177 -79.54385262 71.73252714 -86.40234375 79.02734375 C-92.81699963 85.8558484 -99.18140352 92.7266829 -105.3125 99.8125 C-109.17703546 104.26451828 -113.21622156 108.55187938 -117.23706055 112.86206055 C-120.62528537 116.50050478 -123.94755279 120.18049652 -127.1953125 123.9453125 C-129.58782177 126.66925162 -132.04424469 129.33325784 -134.5 132 C-139.73266733 137.68985661 -144.84780754 143.46017335 -149.84765625 149.35546875 C-152.43843995 152.40847135 -155.04793344 155.44443305 -157.67382812 158.46728516 C-158.71516575 159.6708046 -159.74299916 160.88601006 -160.765625 162.10546875 C-167.66500166 169.74925184 -182.54015965 180.37834664 -193 181.25 C-193.66 181.1675 -194.32 181.085 -195 181 C-192.2502536 179.16683574 -189.47921156 177.75752386 -186.50390625 176.33569336 C-179.33167134 172.88857908 -173.00777939 169.28395054 -167 164 C-166.31679688 163.43539062 -165.63359375 162.87078125 -164.9296875 162.2890625 C-160.11072011 158.23966404 -156.0396814 153.81323742 -152 149 C-145.14816664 140.87533877 -138.15741284 132.93623069 -130.87207031 125.19628906 C-127.37808613 121.48356467 -123.95106406 117.73253065 -120.62109375 113.87109375 C-114.91147727 107.2809581 -108.98386941 100.87989169 -103.0847168 94.4597168 C-100.22455432 91.34438736 -97.38515356 88.21182594 -94.5625 85.0625 C-90.56302419 80.60347939 -86.50567008 76.20043617 -82.42407227 71.81665039 C-79.77358705 68.96009164 -77.17623375 66.06732616 -74.62109375 63.125 C-68.30648278 55.87790265 -61.63378298 48.95377354 -55 42 C-54.24203125 41.20480957 -54.24203125 41.20480957 -53.46875 40.39355469 C-47.38378713 34.04768134 -40.90757865 28.43072151 -34 23 C-33.03707031 22.22011719 -32.07414063 21.44023438 -31.08203125 20.63671875 C-21.44861638 12.98126739 -11.02698184 5.51349092 0 0 Z " fill="#F0FCFE" transform="translate(1038,17)"/>
<path d="M0 0 C0 0.33 0 0.66 0 1 C-1.0621875 1.23074219 -2.124375 1.46148437 -3.21875 1.69921875 C-13.32312519 3.96247184 -13.32312519 3.96247184 -22.33203125 8.90625 C-24.9781237 10.64139259 -27.96924902 11.18402858 -31 12 C-33.13344768 13.3916876 -33.13344768 13.3916876 -35 15 C-36.66666667 16 -38.33333333 17 -40 18 C-40.9590625 18.7734375 -40.9590625 18.7734375 -41.9375 19.5625 C-44.481326 21.33546964 -47.06746919 22.02248973 -50 23 C-51.35113205 23.97581759 -52.68946944 24.97029741 -54 26 C-54.66 26 -55.32 26 -56 26 C-56 26.66 -56 27.32 -56 28 C-58.01822917 28.390625 -60.03645833 28.78125 -62.0546875 29.171875 C-64.63503021 30.27033415 -64.87087763 31.49186751 -66 34 C-67.5859375 35.6328125 -67.5859375 35.6328125 -69.375 37.125 C-69.96023438 37.62257812 -70.54546875 38.12015625 -71.1484375 38.6328125 C-73.0260861 40.01926189 -74.90689421 40.97876693 -77 42 C-80.34204983 44.54632368 -83.2623802 47.24130534 -86.1875 50.25 C-88.82009823 52.82409605 -91.53076127 55.2090083 -94.3515625 57.5703125 C-96.02103891 58.98352091 -96.02103891 58.98352091 -97.55859375 60.5625 C-99 62 -99 62 -101.4375 63.875 C-104.10541817 65.93963483 -104.10541817 65.93963483 -106.1875 68.75 C-106.785625 69.4925 -107.38375 70.235 -108 71 C-108.66 71 -109.32 71 -110 71 C-110.226875 71.556875 -110.45375 72.11375 -110.6875 72.6875 C-112.35666538 75.62841043 -114.6135675 77.6135675 -117 80 C-117.495 80.845625 -117.99 81.69125 -118.5 82.5625 C-120.27268473 85.44311268 -122.34503396 86.92783138 -125 89 C-126.37368345 90.63356951 -127.71937515 92.2925002 -129 94 C-129.99 93.67 -130.98 93.34 -132 93 C-131.54109375 92.48050781 -131.0821875 91.96101563 -130.609375 91.42578125 C-127.97223719 88.42853009 -125.35163958 85.44472064 -122.875 82.3125 C-121.19287524 80.23787946 -119.40132135 78.40023655 -117.50732422 76.52319336 C-113.81406001 72.79104638 -110.2786581 68.90301857 -106.703125 65.05859375 C-100.98426677 58.93124565 -95.30478632 52.8728504 -88.75 47.625 C-85.93628785 45.36561973 -83.12903381 43.10925631 -80.375 40.77734375 C-70.66806034 32.58711341 -60.11331991 25.58021121 -49.05078125 19.3515625 C-46.9145935 18.0642676 -46.9145935 18.0642676 -45.25 16.08203125 C-42.09901809 13.16627889 -38.60585498 11.74138279 -34.6875 10.0625 C-33.89585449 9.71695068 -33.10420898 9.37140137 -32.28857422 9.01538086 C-10.69625806 -0.24309677 -10.69625806 -0.24309677 0 0 Z " fill="#8EE1F5" transform="translate(1086,0)"/>
<path d="M0 0 C3.70103827 1.23367942 5.26809601 3.26809601 8 6 C8.99 6.33 9.98 6.66 11 7 C11 7.99 11 8.98 11 10 C11.3062434 11.33981486 11.63451555 12.67511887 12 14 C12.66 14 13.32 14 14 14 C14.33 15.32 14.66 16.64 15 18 C15.66 18 16.32 18 17 18 C17 18.66 17 19.32 17 20 C17.99 20.33 18.98 20.66 20 21 C20.66 21.99 21.32 22.98 22 24 C22.99 24.33 23.98 24.66 25 25 C25.68486725 26.32407669 26.34870203 27.65909241 27 29 C27.70125 29.70125 28.4025 30.4025 29.125 31.125 C31 33 31 33 31 35 C31.99 35 32.98 35 34 35 C34 35.66 34 36.32 34 37 C34.99 37.33 35.98 37.66 37 38 C38.44140625 39.328125 38.44140625 39.328125 40 41 C41.29618609 42.26690879 42.60958416 43.51638913 43.9375 44.75 C44.60652344 45.38421875 45.27554688 46.0184375 45.96484375 46.671875 C47.9157447 48.25996336 47.9157447 48.25996336 50.25390625 47.703125 C51.11822266 47.35507812 51.11822266 47.35507812 52 47 C51.67 47.99 51.34 48.98 51 50 C51.99 50.33 52.98 50.66 54 51 C53.505 51.99 53.505 51.99 53 53 C47.03982725 53.58958543 44.12665685 50.6368389 39.6015625 47.10546875 C15.61125191 26.97777466 15.61125191 26.97777466 11 15 C9.35328089 12.89022677 7.70297534 10.87770328 5.9375 8.875 C1.12811321 3.38433962 1.12811321 3.38433962 0 0 Z " fill="#AFE8F6" transform="translate(731,306)"/>
<path d="M0 0 C0 0.33 0 0.66 0 1 C-1.0621875 1.23074219 -2.124375 1.46148437 -3.21875 1.69921875 C-13.32312519 3.96247184 -13.32312519 3.96247184 -22.33203125 8.90625 C-24.9781237 10.64139259 -27.96924902 11.18402858 -31 12 C-33.13344768 13.3916876 -33.13344768 13.3916876 -35 15 C-36.66666667 16 -38.33333333 17 -40 18 C-40.9590625 18.7734375 -40.9590625 18.7734375 -41.9375 19.5625 C-44.481326 21.33546964 -47.06746919 22.02248973 -50 23 C-51.35113205 23.97581759 -52.68946944 24.97029741 -54 26 C-54.66 26 -55.32 26 -56 26 C-56 26.66 -56 27.32 -56 28 C-57.27875 28.2475 -58.5575 28.495 -59.875 28.75 C-62.07584413 29.24814986 -62.07584413 29.24814986 -64 30 C-65.16666667 31.91666667 -65.16666667 31.91666667 -66 34 C-69 35.8125 -69 35.8125 -72 37 C-72.66 36.67 -73.32 36.34 -74 36 C-67.58005291 30.49986989 -60.56513472 26.17680255 -53.29736328 21.90893555 C-48.84939053 19.28702346 -48.84939053 19.28702346 -44.9765625 15.9140625 C-41.9946845 13.02647313 -38.47148873 11.68381139 -34.6875 10.0625 C-33.89585449 9.71695068 -33.10420898 9.37140137 -32.28857422 9.01538086 C-10.69625806 -0.24309677 -10.69625806 -0.24309677 0 0 Z " fill="#93E1F4" transform="translate(1086,0)"/>
<path d="M0 0 C-20.65111045 8.00840307 -40.13517523 8.17657021 -62 8 C-62 7.34 -62 6.68 -62 6 C-61.14994385 5.98541748 -60.2998877 5.97083496 -59.42407227 5.95581055 C-40.81311475 5.59938495 -23.03135141 5.1151636 -5.1015625 -0.546875 C-3 -1 -3 -1 0 0 Z " fill="#F0FCFE" transform="translate(843,199)"/>
<path d="M0 0 C13.53108348 -0.2276865 26.37497028 6.98086244 36 16 C37.07507813 16.99193359 37.07507813 16.99193359 38.171875 18.00390625 C42.06160726 21.74009645 45.39615862 25.66397006 48.546875 30.03515625 C50.86540835 33.17016237 53.43321881 36.06653578 56 39 C55.505 39.99 55.505 39.99 55 41 C50.11572696 35.73539422 45.3205913 30.50609132 40.9375 24.8125 C30.15484908 11.26451714 16.45068531 5.02516768 0 1 C0 0.67 0 0.34 0 0 Z " fill="#EEFCFD" transform="translate(688,283)"/>
<path d="M0 0 C0 0.33 0 0.66 0 1 C-1.59328125 1.34611328 -1.59328125 1.34611328 -3.21875 1.69921875 C-13.17006872 3.94196015 -13.17006872 3.94196015 -22.015625 8.84375 C-25.43602507 10.83673902 -29.25003686 11.39826757 -33.0859375 12.23828125 C-35.86314936 12.96422805 -38.10041265 13.90508347 -40.625 15.25 C-41.73875 15.8275 -42.8525 16.405 -44 17 C-44.66 16.67 -45.32 16.34 -46 16 C-37.98711144 11.80175786 -29.98139936 7.79741635 -21.5 4.625 C-20.86707031 4.38700684 -20.23414063 4.14901367 -19.58203125 3.90380859 C-13.14754522 1.56506852 -6.90771558 -0.34538578 0 0 Z " fill="#DFF6FB" transform="translate(1086,0)"/>
<path d="M0 0 C-19.83751962 7.69289639 -19.83751962 7.69289639 -30 7 C-30 6.67 -30 6.34 -30 6 C-28.35 6 -26.7 6 -25 6 C-25 5.34 -25 4.68 -25 4 C-23.99839844 3.80664062 -22.99679687 3.61328125 -21.96484375 3.4140625 C-20.62236492 3.15119951 -19.27991873 2.88816974 -17.9375 2.625 C-16.95233398 2.43550781 -16.95233398 2.43550781 -15.94726562 2.2421875 C-12.61289063 1.5851678 -9.45150284 0.83235677 -6.19140625 -0.1640625 C-3 -1 -3 -1 0 0 Z " fill="#F1FBFD" transform="translate(843,199)"/>
<path d="M0 0 C0 0.99 0 1.98 0 3 C-13.6332574 6.25968109 -13.6332574 6.25968109 -20 7 C-17.34228645 3.01342968 -14.4225632 2.80603037 -10 1.8125 C-8.89398437 1.54663086 -8.89398437 1.54663086 -7.765625 1.27539062 C-2.36860521 -0 -2.36860521 -0 0 0 Z " fill="#90E2F6" transform="translate(1088,0)"/>
<path d="M0 0 C0.639375 0.53625 1.27875 1.0725 1.9375 1.625 C2.57042969 1.75003906 3.20335937 1.87507813 3.85546875 2.00390625 C6.53863172 2.80432447 7.45457892 4.02134865 9.1875 6.1875 C9.70828125 6.82816406 10.2290625 7.46882813 10.765625 8.12890625 C11.15234375 8.62261719 11.5390625 9.11632812 11.9375 9.625 C11.6075 10.285 11.2775 10.945 10.9375 11.625 C10.22464844 11.08230469 9.51179687 10.53960937 8.77734375 9.98046875 C3.65610119 6.15504531 -1.02325961 2.77228547 -7.0625 0.625 C-7.0625 0.295 -7.0625 -0.035 -7.0625 -0.375 C-2.60535714 -1.73690476 -2.60535714 -1.73690476 0 0 Z " fill="#91E2F3" transform="translate(712.0625,287.375)"/>
<path d="M0 0 C0 3.18319019 -0.38466965 4.33392078 -2 7 C-3.55078125 8.4921875 -3.55078125 8.4921875 -5.3125 9.875 C-8.68350161 12.63950341 -11.3094577 15.57567344 -14 19 C-14.66 18.67 -15.32 18.34 -16 18 C-15.26394531 17.20335937 -14.52789063 16.40671875 -13.76953125 15.5859375 C-12.78378001 14.5156933 -11.79810712 13.44537693 -10.8125 12.375 C-10.32974609 11.85292969 -9.84699219 11.33085937 -9.34960938 10.79296875 C-6.11982129 7.28138707 -3.02821458 3.68700349 0 0 Z " fill="#9CE1EF" transform="translate(901,151)"/>
<path d="M0 0 C0.33 1.32 0.66 2.64 1 4 C0.360625 4.226875 -0.27875 4.45375 -0.9375 4.6875 C-3.27193661 5.85250896 -3.27193661 5.85250896 -3.75 8.625 C-3.8325 9.40875 -3.915 10.1925 -4 11 C-7 11 -7 11 -9 10 C-7.88200014 8.66079162 -6.75538103 7.32877444 -5.625 6 C-4.99851562 5.2575 -4.37203125 4.515 -3.7265625 3.75 C-3.15679688 3.1725 -2.58703125 2.595 -2 2 C-1.34 2 -0.68 2 0 2 C0 1.34 0 0.68 0 0 Z " fill="#7EE0FB" transform="translate(899,156)"/>
<path d="M0 0 C0.66 0.33 1.32 0.66 2 1 C-2.38423952 4.44475962 -5.30835767 6.31620235 -11 6 C-7.57874946 3.12614955 -4.16111563 1.54115394 0 0 Z " fill="#9EE3F5" transform="translate(1053,11)"/>
<path d="M0 0 C3.63 0 7.26 0 11 0 C11 0.33 11 0.66 11 1 C5.54538831 2.38529821 0.63281599 3.2396943 -5 3 C-5 2.67 -5 2.34 -5 2 C-3.35 2 -1.7 2 0 2 C0 1.34 0 0.68 0 0 Z " fill="#D9F3F8" transform="translate(818,203)"/>
<path d="M0 0 C0.33 0.66 0.66 1.32 1 2 C0.26418258 3.1549921 -0.48930039 4.29874185 -1.25 5.4375 C-1.66765625 6.07558594 -2.0853125 6.71367188 -2.515625 7.37109375 C-4.27248877 9.29902057 -5.46089803 9.61479436 -8 10 C-7.04367001 8.70684939 -6.08486149 7.41553147 -5.125 6.125 C-4.59132813 5.40570313 -4.05765625 4.68640625 -3.5078125 3.9453125 C-2 2 -2 2 0 0 Z " fill="#9BE3F4" transform="translate(947,100)"/>
<path d="M0 0 C-1.0625 1.5 -1.0625 1.5 -3 3 C-6.6875 3.1875 -6.6875 3.1875 -10 3 C-3.66666667 -1.22222222 -3.66666667 -1.22222222 0 0 Z " fill="#A2E1F3" transform="translate(846,199)"/>
<path d="M0 0 C0 3.55955169 -0.89341295 4.27899173 -3 7 C-3 7.66 -3 8.32 -3 9 C-3.99 8.67 -4.98 8.34 -6 8 C-4.73058503 4.08597051 -3.48832306 2.20927127 0 0 Z " fill="#7DE1F7" transform="translate(889,167)"/>
<path d="M0 0 C0 0.99 0 1.98 0 3 C-2.5 5.1875 -2.5 5.1875 -5 7 C-5.66 6.67 -6.32 6.34 -7 6 C-4.69 4.02 -2.38 2.04 0 0 Z " fill="#94DFF1" transform="translate(1001,45)"/>
<path d="" fill="#FFFFFF" transform="translate(0,0)"/>
<path d="" fill="#FFFFFF" transform="translate(0,0)"/>
<path d="" fill="#FFFFFF" transform="translate(0,0)"/>
<path d="" fill="#FFFFFF" transform="translate(0,0)"/>
<path d="" fill="#FFFFFF" transform="translate(0,0)"/>
<path d="" fill="#FFFFFF" transform="translate(0,0)"/>
<path d="" fill="#FFFFFF" transform="translate(0,0)"/>
<path d="" fill="#FFFFFF" transform="translate(0,0)"/>
<path d="" fill="#FFFFFF" transform="translate(0,0)"/>
<path d="" fill="#FFFFFF" transform="translate(0,0)"/>
<path d="" fill="#FFFFFF" transform="translate(0,0)"/>
<path d="" fill="#FFFFFF" transform="translate(0,0)"/>
<path d="" fill="#FFFFFF" transform="translate(0,0)"/>
<path d="" fill="#FFFFFF" transform="translate(0,0)"/>
<path d="" fill="#FFFFFF" transform="translate(0,0)"/>
<path d="" fill="#FFFFFF" transform="translate(0,0)"/>
<path d="" fill="#FFFFFF" transform="translate(0,0)"/>
<path d="" fill="#FFFFFF" transform="translate(0,0)"/>
<path d="" fill="#FFFFFF" transform="translate(0,0)"/>
<path d="" fill="#FFFFFF" transform="translate(0,0)"/>
<path d="" fill="#FFFFFF" transform="translate(0,0)"/>
<path d="" fill="#FFFFFF" transform="translate(0,0)"/>
<path d="" fill="#FFFFFF" transform="translate(0,0)"/>
<path d="" fill="#FFFFFF" transform="translate(0,0)"/>
<path d="" fill="#FFFFFF" transform="translate(0,0)"/>
<path d="" fill="#FFFFFF" transform="translate(0,0)"/>
<path d="" fill="#FFFFFF" transform="translate(0,0)"/>
<path d="" fill="#FFFFFF" transform="translate(0,0)"/>
<path d="" fill="#FFFFFF" transform="translate(0,0)"/>
<path d="" fill="#FFFFFF" transform="translate(0,0)"/>
<path d="" fill="#FFFFFF" transform="translate(0,0)"/>
<path d="" fill="#FFFFFF" transform="translate(0,0)"/>
<path d="" fill="#FFFFFF" transform="translate(0,0)"/>
</svg>
