<svg xmlns="http://www.w3.org/2000/svg" version="1.1" xmlns:xlink="http://www.w3.org/1999/xlink" width="1500" height="480" viewBox="0 0 1500 480"><svg xml:space="preserve" width="1500" height="480" data-version="2" data-id="lg_L152y3zCaYjlK6CsRB" viewBox="0 0 685 480" x="0" y="0"><rect width="100%" height="100%" fill="transparent"></rect><circle r="59.32" fill="#00ebff" transform="translate(175.98 381.93)scale(.8405)"></circle><path fill="#00ebff" d="M269.145 353.725q7.77 0 13.24 2.7v12.7l-.08.08q-2.32-3.57-9.79-4.73-2.2-.37-5.56-.37-3.37 0-6.6 1.26-3.24 1.27-5.32 3.59-4.02 4.53-4.02 12.91 0 9.75 5.1 14.53 4.24 3.98 11.21 3.98 7.88 0 12.78-3.36 1.79-1.2 3.03-2.99l.13.08v11.63q-6.35 5.27-17.1 5.27-12.66 0-19.84-8.06-6.89-7.67-6.89-20.33 0-13.41 7.55-21.13 7.64-7.76 22.16-7.76"></path><rect width="43.83" height="57.28" x="-21.91" y="-28.64" fill="none" rx="0" ry="0" transform="translate(261.85 382.87)"></rect><path fill="#00ebff" d="M321.325 407.395q-5.9 3.19-10.67 3.19t-8.18-.89q-3.4-.89-5.77-2.64-4.81-3.52-4.81-10.21 0-5.97 5.89-9.96 6.39-4.31 17.35-4.31l1.66.04q.5.04 1.12.06.62.02 1.12.1-.33-6.64-5.72-7.76-1.79-.37-3.8-.37-2.02 0-3.95.35-1.93.35-3.75.94-4.03 1.28-5.77 2.94l-.13-.08-1.24-9.17q7.35-3.86 16.06-3.86 13.53 0 17.31 9.75 1.2 3.11 1.2 7.01v15.03q0 4.81 3.41 6.56l-7.52 6.89q-2.36-1.25-3.81-3.61m-2.25-8.47v-8.68q-1.12-.2-2.32-.2h-1.66q-9.17 0-11.66 4.06-.75 1.21-.75 2.54 0 1.32.48 2.34.47 1.02 1.6 1.68 2.15 1.25 6.41 1.25 4.25 0 7.95-2.04-.05-.45-.05-.95"></path><rect width="40.76" height="45.24" x="-20.38" y="-22.62" fill="none" rx="0" ry="0" transform="translate(312.77 388.88)"></rect><path fill="#00ebff" d="M351.825 348.125v57.19q0 3.57.17 4.65h-10.55v-61.84z"></path><rect width="10.55" height="61.84" x="-5.28" y="-30.92" fill="none" rx="0" ry="0" transform="translate(347.22 379.55)"></rect><path fill="#00ebff" d="M373.115 348.125v57.19q0 3.57.17 4.65h-10.54v-61.84z"></path><rect width="10.54" height="61.84" x="-5.27" y="-30.92" fill="none" rx="0" ry="0" transform="translate(368.51 379.55)"></rect><path fill="#00ebff" d="M438.735 353.725q7.76 0 13.24 2.7v12.7l-.08.08q-2.33-3.57-9.8-4.73-2.2-.37-5.56-.37-3.36 0-6.6 1.26-3.24 1.27-5.31 3.59-4.03 4.53-4.03 12.91 0 9.75 5.11 14.53 4.23 3.98 11.2 3.98 7.89 0 12.79-3.36 1.78-1.2 3.03-2.99l.12.08v11.63q-6.35 5.27-17.1 5.27-12.66 0-19.84-8.06-6.89-7.67-6.89-20.33 0-13.41 7.56-21.13 7.63-7.76 22.16-7.76"></path><rect width="43.83" height="57.28" x="-21.91" y="-28.64" fill="none" rx="0" ry="0" transform="translate(431.43 382.87)"></rect><path fill="#00ebff" d="M490.905 407.395q-5.89 3.19-10.67 3.19-4.77 0-8.17-.89-3.41-.89-5.77-2.64-4.82-3.52-4.82-10.21 0-5.97 5.9-9.96 6.39-4.31 17.35-4.31l1.66.04q.49.04 1.12.06.62.02 1.12.1-.33-6.64-5.73-7.76-1.78-.37-3.8-.37-2.01 0-3.94.35-1.93.35-3.76.94-4.02 1.28-5.77 2.94l-.12-.08-1.25-9.17q7.35-3.86 16.07-3.86 13.53 0 17.3 9.75 1.21 3.11 1.21 7.01v15.03q0 4.81 3.4 6.56l-7.51 6.89q-2.37-1.25-3.82-3.61m-2.24-8.47v-8.68q-1.12-.2-2.33-.2h-1.66q-9.17 0-11.66 4.06-.74 1.21-.74 2.54 0 1.32.47 2.34.48 1.02 1.6 1.68 2.16 1.25 6.41 1.25 4.26 0 7.95-2.04-.04-.45-.04-.95"></path><rect width="40.76" height="45.24" x="-20.38" y="-22.62" fill="none" rx="0" ry="0" transform="translate(482.36 388.88)"></rect><path fill="#00ebff" d="M522.575 409.095v12.2q0 3.57.16 4.65h-10.33v-59.35h10.17v2.69q5.02-3.52 9.63-3.52 4.6 0 8.17 1.28 3.57 1.29 6.27 3.99 5.94 5.85 5.94 16.68 0 7.18-3.37 12.83-2.86 4.77-7.92 7.63-4.49 2.54-9.72 2.54t-9-1.62m0-30.47v20.01q3.15 2.65 8.17 2.65 8.22 0 10.63-7.92.83-2.7.83-5.79t-.58-4.94q-.58-1.85-1.52-3.2-.93-1.35-2.09-2.24-1.16-.89-2.37-1.43-2.12-.96-4.36-.96t-4.64 1.04q-2.41 1.04-4.07 2.78"></path><rect width="40.18" height="60.18" x="-20.09" y="-30.09" fill="none" rx="0" ry="0" transform="translate(533 396.36)"></rect><path fill="#00ebff" d="m569.305 360.945-9.34-6.72q3.32-5.19 6.93-9.13l8.93 7.01q-1.79 2.2-3.32 4.32zm1.58 5.65v38.72q0 3.57.16 4.65h-10.54v-43.37z"></path><rect width="15.86" height="64.87" x="-7.93" y="-32.44" fill="none" rx="0" ry="0" transform="translate(568.4 378.03)"></rect><path fill="#00ebff" d="M601.845 400.835q5.35 0 7.35-2.78h.33l.12 9.63q-2.03 2.03-7.55 2.69-1.49.21-3.72.21-2.22 0-4.81-.83-2.59-.83-4.42-2.7-3.78-3.86-3.78-12.07v-18.85h-6.26q-.05-1.2-.05-2.45v-6.39q0-.7.05-.7h6.26v-11.83h10.17v11.83h11.42v9.54h-11.42v16.94q0 6.51 3.61 7.43 1.16.33 2.7.33"></path><rect width="30.59" height="55.82" x="-15.29" y="-27.91" fill="none" rx="0" ry="0" transform="translate(594.85 383.18)"></rect><path fill="#00ebff" d="M646.715 407.395q-5.9 3.19-10.67 3.19t-8.18-.89q-3.4-.89-5.77-2.64-4.81-3.52-4.81-10.21 0-5.97 5.89-9.96 6.39-4.31 17.35-4.31l1.66.04q.5.04 1.12.06.63.02 1.12.1-.33-6.64-5.72-7.76-1.79-.37-3.8-.37t-3.94.35q-1.93.35-3.76.94-4.03 1.28-5.77 2.94l-.12-.08-1.25-9.17q7.35-3.86 16.06-3.86 13.53 0 17.31 9.75 1.2 3.11 1.2 7.01v15.03q0 4.81 3.41 6.56l-7.52 6.89q-2.36-1.25-3.81-3.61m-2.25-8.47v-8.68q-1.12-.2-2.32-.2h-1.66q-9.17 0-11.66 4.06-.75 1.21-.75 2.54 0 1.32.48 2.34.48 1.02 1.6 1.68 2.15 1.25 6.41 1.25 4.25 0 7.95-2.04-.05-.45-.05-.95"></path><rect width="40.76" height="45.24" x="-20.38" y="-22.62" fill="none" rx="0" ry="0" transform="translate(638.16 388.88)"></rect><path fill="#00ebff" d="M677.215 348.125v57.19q0 3.57.17 4.65h-10.54v-61.84z"></path><rect width="10.54" height="61.84" x="-5.27" y="-30.92" fill="none" rx="0" ry="0" transform="translate(672.62 379.55)"></rect><path fill="#fff" d="M160.668 349.46h30.62a3.055 3.055 0 0 1 3.049 3.061v58.133a3.056 3.056 0 0 1-3.05 3.062h-30.62a3.056 3.056 0 0 1-3.05-3.062v-58.133a3.06 3.06 0 0 1 3.051-3.061m3.05 6.123v45.892h24.522v-45.892zm12.26 55.071a3.06 3.06 0 0 0 0-6.12 3.057 3.057 0 0 0-3.055 3.06 3.055 3.055 0 0 0 3.055 3.06"></path><path fill="#00ebff" d="M272.015 440.485q3.65 0 6.23 1.27v5.98l-.04.04q-1.09-1.68-4.61-2.23-1.03-.17-2.61-.17-1.58 0-3.11.59-1.52.6-2.5 1.69-1.89 2.13-1.89 6.07 0 4.59 2.4 6.84 1.99 1.88 5.27 1.88 3.71 0 6.02-1.59.84-.56 1.42-1.4l.06.04v5.47q-2.99 2.48-8.04 2.48-5.96 0-9.34-3.79-3.24-3.62-3.24-9.57 0-6.31 3.55-9.95 3.6-3.65 10.43-3.65"></path><rect width="20.62" height="26.96" x="-10.31" y="-13.48" fill="none" rx="0" ry="0" transform="translate(268.85 454.46)"></rect><path fill="#00ebff" d="M296.565 465.745q-2.77 1.5-5.02 1.5-2.24 0-3.84-.42-1.61-.42-2.72-1.24-2.26-1.66-2.26-4.8 0-2.82 2.77-4.69 3.01-2.03 8.16-2.03l.78.02q.24.02.53.03.29.01.53.04-.16-3.12-2.7-3.65-.84-.17-1.78-.17-.95 0-1.86.16-.91.17-1.77.44-1.89.61-2.71 1.39l-.06-.04-.59-4.32q3.46-1.81 7.56-1.81 6.37 0 8.15 4.59.56 1.46.56 3.3v7.07q0 2.26 1.61 3.08l-3.54 3.25q-1.11-.59-1.8-1.7m-1.05-3.99v-4.08q-.53-.1-1.1-.1h-.78q-4.31 0-5.48 1.92-.36.56-.36 1.19 0 .62.23 1.1.22.48.75.79 1.02.59 3.02.59t3.74-.96q-.02-.21-.02-.45"></path><rect width="19.18" height="21.29" x="-9.59" y="-10.64" fill="none" rx="0" ry="0" transform="translate(292.81 457.3)"></rect><path fill="#00ebff" d="M311.475 466.545v5.74q0 1.68.07 2.19h-4.86v-27.93h4.79v1.27q2.36-1.66 4.53-1.66 2.16 0 3.84.6 1.68.61 2.95 1.88 2.8 2.75 2.8 7.85 0 3.38-1.59 6.03-1.34 2.25-3.73 3.6-2.11 1.19-4.57 1.19-2.46 0-4.23-.76m0-14.34v9.42q1.48 1.25 3.84 1.25 3.87 0 5-3.74.39-1.26.39-2.72 0-1.45-.27-2.32-.27-.87-.71-1.51-.44-.63-.99-1.05-.55-.42-1.11-.68-1-.45-2.05-.45-1.06 0-2.19.49t-1.91 1.31"></path><rect width="18.91" height="28.32" x="-9.46" y="-14.16" fill="none" rx="0" ry="0" transform="translate(316.64 460.81)"></rect><path fill="#00ebff" d="m333.465 443.885-4.4-3.16q1.57-2.44 3.26-4.3l4.2 3.3q-.84 1.04-1.56 2.03zm.74 2.66v18.22q0 1.68.08 2.19h-4.96v-20.41z"></path><rect width="7.46" height="30.53" x="-3.73" y="-15.27" fill="none" rx="0" ry="0" transform="translate(333.3 452.19)"></rect><path fill="#00ebff" d="M348.775 462.655q2.52 0 3.46-1.31h.15l.06 4.53q-.95.96-3.55 1.27-.71.1-1.75.1-1.05 0-2.27-.39t-2.08-1.27q-1.77-1.82-1.77-5.68v-8.87h-2.95q-.02-.57-.02-1.15v-3.01q0-.33.02-.33h2.95v-5.57h4.78v5.57h5.37v4.49h-5.37v7.97q0 3.06 1.7 3.49.55.16 1.27.16"></path><rect width="14.39" height="26.27" x="-7.2" y="-13.13" fill="none" rx="0" ry="0" transform="translate(345.75 454.61)"></rect><path fill="#00ebff" d="M369.885 465.745q-2.77 1.5-5.02 1.5-2.24 0-3.84-.42-1.61-.42-2.72-1.24-2.26-1.66-2.26-4.8 0-2.82 2.77-4.69 3.01-2.03 8.16-2.03l.78.02q.24.02.53.03.29.01.53.04-.16-3.12-2.7-3.65-.84-.17-1.78-.17-.95 0-1.86.16-.91.17-1.77.44-1.89.61-2.71 1.39l-.06-.04-.59-4.32q3.46-1.81 7.56-1.81 6.37 0 8.15 4.59.56 1.46.56 3.3v7.07q0 2.26 1.61 3.08l-3.54 3.25q-1.11-.59-1.8-1.7m-1.05-3.99v-4.08q-.53-.1-1.09-.1h-.79q-4.31 0-5.48 1.92-.36.56-.36 1.19 0 .62.23 1.1.22.48.75.79 1.02.59 3.02.59t3.74-.96q-.02-.21-.02-.45"></path><rect width="19.18" height="21.29" x="-9.59" y="-10.64" fill="none" rx="0" ry="0" transform="translate(366.13 457.3)"></rect><path fill="#00ebff" d="M384.245 437.855v26.91q0 1.68.08 2.19h-4.96v-29.1z"></path><rect width="4.96" height="29.1" x="-2.48" y="-14.55" fill="none" rx="0" ry="0" transform="translate(382.35 452.9)"></rect><path fill="#00ebff" d="M412.855 445.355v21.71q-.94-.11-4.82-.11h-.63v-21.6h-3.86q-1.72 0-2.04.17-.31.18-.48.31l-.06-.02v-5l.06-.05q.64.21 3.47.21h12.25q1.72 0 2.03-.17.31-.18.49-.32l.06.02v5l-.06.06q-.65-.21-3.48-.21z"></path><rect width="18.36" height="26.58" x="-9.18" y="-13.29" fill="none" rx="0" ry="0" transform="translate(410.64 454.27)"></rect><path fill="#00ebff" d="M428.325 453.375v11.39q0 1.68.08 2.19h-4.86v-27.93h4.78v9.04q2.52-1.91 5.2-1.91 3.28 0 5.27 2.16 1.95 2.17 1.95 5.75v7.77q0 3.3.1 3.97.1.66.26.85.17.2.29.36l-.04.07q-1.58-.13-2.31-.13h-1.38q-.65 0-1.7.06v-11.31q0-2.7-1.19-3.99-.9-.97-2.45-.97-2.28 0-4 2.63"></path><rect width="17.85" height="28.06" x="-8.93" y="-14.03" fill="none" rx="0" ry="0" transform="translate(432.97 453.56)"></rect><path fill="#00ebff" d="M459.815 465.745q-2.78 1.5-5.02 1.5-2.25 0-3.85-.42t-2.72-1.24q-2.26-1.66-2.26-4.8 0-2.82 2.77-4.69 3.01-2.03 8.17-2.03l.78.02q.23.02.52.03.3.01.53.04-.16-3.12-2.69-3.65-.84-.17-1.79-.17-.95 0-1.86.16-.9.17-1.76.44-1.9.61-2.72 1.39l-.06-.04-.58-4.32q3.45-1.81 7.55-1.81 6.37 0 8.15 4.59.57 1.46.57 3.3v7.07q0 2.26 1.6 3.08l-3.54 3.25q-1.11-.59-1.79-1.7m-1.06-3.99v-4.08q-.53-.1-1.09-.1h-.78q-4.32 0-5.49 1.92-.35.56-.35 1.19 0 .62.22 1.1.23.48.75.79 1.02.59 3.02.59t3.74-.96q-.02-.21-.02-.45"></path><rect width="19.18" height="21.29" x="-9.59" y="-10.64" fill="none" rx="0" ry="0" transform="translate(456.06 457.3)"></rect><path fill="#00ebff" d="M478.695 462.655q2.52 0 3.46-1.31h.16l.05 4.53q-.95.96-3.55 1.27-.7.1-1.75.1-1.04 0-2.26-.39-1.23-.39-2.08-1.27-1.78-1.82-1.78-5.68v-8.87h-2.95q-.02-.57-.02-1.15v-3.01q0-.33.02-.33h2.95v-5.57h4.78v5.57h5.37v4.49h-5.37v7.97q0 3.06 1.7 3.49.55.16 1.27.16"></path><rect width="14.39" height="26.27" x="-7.2" y="-13.13" fill="none" rx="0" ry="0" transform="translate(475.67 454.61)"></rect><path fill="#00ebff" d="m503.815 461.325-1.84 5.78q-1.68-.15-3.92-.15h-1.55l8.5-23.81q.57-1.6.57-1.87 0-.26-.02-.32l.02-.04q1.27.06 2.69.06 1.17 0 2.81-.04l.02.04q-.03.08-.03.22 0 .37.58 1.97l8.67 23.85q-.39-.02-.91-.02l-1.02-.04h-3.91l-1.83-5.63zm1.48-4.69h5.82l-2.95-9.08z"></path><rect width="23.81" height="26.19" x="-11.9" y="-13.1" fill="none" rx="0" ry="0" transform="translate(508.91 454.51)"></rect><path fill="#00ebff" d="M528.115 453.305v11.15q0 1.72.15 2.5h-4.9v-20.41h4.75v1.74q2.57-2.13 5.5-2.13 3.21 0 5.12 2.17 1.92 2.18 1.92 5.74v7.77q0 3.3.09 3.97.1.66.27.85.16.2.28.36l-.04.07q-1.58-.13-2.3-.13h-1.37q-.63 0-1.68.06v-10.65q0-5.72-3.48-5.72-2.58 0-4.31 2.66"></path><rect width="17.93" height="20.93" x="-8.96" y="-10.46" fill="none" rx="0" ry="0" transform="translate(532.83 457.12)"></rect><path fill="#00ebff" d="M553.225 467.245q-5.5 0-8.3-2.01.04-.59.12-1.33l.18-1.41q.15-1.38.19-1.72.04-.35.06-.38.02-.02.31.32t1.12.83q.82.49 1.89.86 2.32.8 4.84.8 3.38 0 3.38-2.25 0-.72-.64-1.07-1.15-.59-3.39-.89-2.24-.3-3.66-.89-1.43-.59-2.33-1.41-1.66-1.54-1.66-4.04 0-3.05 2.35-4.78 2.32-1.72 6.42-1.72 4.06 0 6.94 2.3-.14.51-.3.98-.45 1.29-.66 1.85l-.45 1.16q-.04.15-.06.15-.04 0-.31-.41-1.23-1.42-3.83-1.87-.8-.16-1.64-.16-3.55 0-3.55 2.15 0 .74.74 1.13 1.38.74 3.8 1.1 2.41.35 3.66.94 1.25.6 2.01 1.44 1.41 1.52 1.41 4.04 0 2.76-2.21 4.47-2.31 1.82-6.43 1.82"></path><rect width="16.94" height="21.09" x="-8.47" y="-10.54" fill="none" rx="0" ry="0" transform="translate(553.9 457.2)"></rect><path fill="#00ebff" d="m569.795 466.955-6.14-20.41h5.26l3.63 14.67 3.91-14.67h4.49l4.04 14.98 3.63-14.98h4.73l-6.02 20.41h-5.05l-3.87-13.38-3.59 13.38z"></path><rect width="29.69" height="20.41" x="-14.85" y="-10.21" fill="none" rx="0" ry="0" transform="translate(579 457.25)"></rect><path fill="#00ebff" d="M595.395 456.915q0-2.29.78-4.24.78-1.95 2.21-3.42 3.05-3.1 7.97-3.1 4.16 0 6.68 2.75 2.48 2.66 2.48 6.68 0 1.54-.24 2.11-1.95.55-7.95.55h-6.87q.51 2.09 2.36 3.25 1.86 1.16 4.83 1.16 3.1 0 5.33-1.11.59-.3.88-.55-.04.82-.1 1.68l-.21 3.05q-1.49 1.01-4.81 1.4-.98.12-1.87.12-4.96 0-8.21-2.89-3.26-2.91-3.26-7.44m14.92-2.46q-.8-4.2-4.57-4.2-2.97 0-4.51 2.56-.47.78-.72 1.72.47.02 1.15.03h1.45q.72.02 1.38.02h1.12q.99 0 1.95-.02l1.6-.05q.65-.02 1.15-.06"></path><rect width="20.12" height="21.09" x="-10.06" y="-10.54" fill="none" rx="0" ry="0" transform="translate(605.96 457.2)"></rect><path fill="#00ebff" d="M624.365 452.735v12.03q0 1.68.07 2.19h-4.86v-20.41h4.79v1.5q1.66-1.89 3.48-1.89 1.83 0 2.88.45l-.35 5.25-.08.06q-.68-1.21-2.83-1.21-.82 0-1.67.55-.85.56-1.43 1.48"></path><rect width="11.15" height="20.8" x="-5.58" y="-10.4" fill="none" rx="0" ry="0" transform="translate(625.65 457.06)"></rect><path fill="#00ebff" d="M639.985 467.245q-5.51 0-8.3-2.01.04-.59.12-1.33l.17-1.41.2-1.72q.04-.35.06-.38.02-.02.31.32t1.11.83q.82.49 1.9.86 2.32.8 4.84.8 3.38 0 3.38-2.25 0-.72-.64-1.07-1.16-.59-3.39-.89-2.24-.3-3.67-.89-1.42-.59-2.32-1.41-1.66-1.54-1.66-4.04 0-3.05 2.34-4.78 2.33-1.72 6.43-1.72 4.06 0 6.93 2.3-.13.51-.29.98-.45 1.29-.66 1.85l-.45 1.16q-.04.15-.06.15-.04 0-.31-.41-1.23-1.42-3.83-1.87-.8-.16-1.64-.16-3.56 0-3.56 2.15 0 .74.75 1.13 1.38.74 3.79 1.1 2.42.35 3.67.94 1.25.6 2.01 1.44 1.4 1.52 1.4 4.04 0 2.76-2.2 4.47-2.31 1.82-6.43 1.82"></path><rect width="16.93" height="21.09" x="-8.46" y="-10.54" fill="none" rx="0" ry="0" transform="translate(640.65 457.2)"></rect><path fill="#00ebff" d="M658.115 466.955h-5.71q.18-1.19.18-2.11 0-.92-.01-1.26-.01-.34-.03-.68-.02-.33-.04-.62l-.06-.49h5.67q-.06.74-.06 1.21l-.04.82v1.4q0 1.02.1 1.73"></path><rect width="5.71" height="5.16" x="-2.85" y="-2.58" fill="none" rx="0" ry="0" transform="translate(655.76 464.88)"></rect></svg></svg>